<svg width="72" height="72" viewBox="0 0 72 72" fill="none" xmlns="http://www.w3.org/2000/svg">
<path d="M24.5366 32.233C21.7425 32.233 19.495 33.7825 19.495 37.2721C19.495 40.6836 21.7425 42.3113 24.5366 42.3113C27.321 42.3113 29.5733 40.6836 29.5733 37.2721C29.5733 33.7825 27.321 32.233 24.5366 32.233ZM24.5366 39.9149C23.2872 39.9149 22.3526 38.9657 22.3526 37.2721C22.3526 35.4297 23.2872 34.6244 24.5366 34.6244C25.7787 34.6244 26.7158 35.4297 26.7158 37.2721C26.7158 38.9657 25.7787 39.9149 24.5366 39.9149ZM42.6946 32.3208C42.6946 32.3721 42.7361 32.4135 42.7874 32.4135H44.908C45.0763 32.4135 45.213 32.5526 45.213 32.7161V34.5512C45.213 34.6049 45.1715 34.6464 45.1203 34.6464H42.7874C42.7361 34.6464 42.6946 34.6879 42.6946 34.7391V38.3019C42.6946 39.6684 43.212 40.0735 44.0758 40.0735C44.4809 40.0735 45.1178 39.8246 45.2105 39.8246C45.2618 39.8246 45.3057 39.8661 45.3057 39.9174V41.6743C45.3057 41.8061 45.2301 41.8989 45.1471 41.9428C44.7615 42.1502 44.1149 42.2917 43.1583 42.2917C41.4867 42.2917 39.9347 41.4498 39.9347 38.7631V32.5673C39.9347 32.0182 40.1494 31.496 40.4886 31.1251C40.9401 30.6273 42.392 29.6951 42.5799 29.6951C42.6605 29.6951 42.6946 29.7195 42.6946 29.7951V32.3208ZM8.97992 32.7259C8.97992 32.5526 9.11902 32.416 9.29228 32.416H12.9673C16.5765 32.416 18.4457 34.5829 18.4457 37.3868C18.4457 40.1931 16.3544 42.1356 12.9088 42.1356H11.835C11.7838 42.1356 11.7399 42.177 11.7399 42.2307V46.7769C11.7399 46.8526 11.7081 46.877 11.6252 46.877C11.4373 46.877 9.98531 45.9448 9.53386 45.447C9.19467 45.0736 8.97992 44.5514 8.97992 44.0048V32.7259ZM15.7199 37.2453C15.7199 36.052 14.9488 34.9343 12.9112 34.9343H11.8302C11.7789 34.9343 11.7374 34.9758 11.7374 35.0295V39.5147C11.7374 39.566 11.7789 39.6099 11.8302 39.6099H12.9649C15.3929 39.6099 15.7199 37.9237 15.7199 37.2453ZM38.5145 39.1389C38.5145 41.1863 37.043 42.3113 34.1732 42.3113C32.5309 42.3113 30.7959 41.7354 30.7813 41.7305C30.6519 41.6817 30.5665 41.5645 30.5665 41.4303V39.522C30.5665 39.4586 30.6202 39.4098 30.6861 39.4098C30.6958 39.4098 30.7227 39.4147 30.7251 39.4171C31.3376 39.6148 33.324 40.1077 34.3806 40.1077C35.0054 40.1077 35.3324 40.015 35.5422 39.8051C35.6862 39.6611 35.7521 39.5074 35.7521 39.3219C35.7521 38.6972 34.9688 38.524 34.2098 38.358C34.1147 38.3385 34.1561 38.3483 33.8999 38.2873C32.2381 37.8944 30.486 37.4893 30.486 35.3492C30.486 34.3999 30.8837 33.6117 31.628 33.0651C32.3699 32.5185 33.4411 32.233 34.7247 32.233C35.879 32.233 37.248 32.6136 37.7067 32.7601C37.8507 32.8064 37.9337 32.9333 37.9337 33.0626V34.9661C37.9288 35.0539 37.8361 35.0954 37.7726 35.071C36.4573 34.5781 35.2543 34.4048 34.3904 34.4048C33.7047 34.4048 33.2606 34.7025 33.2606 35.1637C33.2606 35.6957 33.9097 35.8397 34.732 36.0251C34.8321 36.0471 35.2811 36.1496 35.3982 36.174C36.0717 36.3228 36.7672 36.4741 37.3383 36.8475C38.1289 37.3648 38.5145 38.114 38.5145 39.1389ZM53.3928 42.1014C53.361 42.1014 53.3342 42.0746 53.3342 42.0428V36.2521C53.3342 34.9661 52.8974 34.417 51.8725 34.417C51.5064 34.417 51.0647 34.5537 50.6255 34.8026C50.1887 35.0563 49.8471 35.2662 49.725 35.3394C49.6909 35.3614 49.6543 35.4199 49.6543 35.4663V42.0453C49.6543 42.077 49.6274 42.1038 49.5957 42.1038H47.0139C46.9822 42.1038 46.9529 42.077 46.9529 42.0453V32.7283C46.9529 32.577 47.0773 32.4526 47.2311 32.4526H49.5981C49.6299 32.4526 49.6591 32.4794 49.6591 32.5111V33.2432C49.6591 33.2872 49.6958 33.3238 49.7397 33.3238C49.7568 33.3238 49.7787 33.314 49.786 33.3091L49.8641 33.2506C50.1521 33.0285 50.5962 32.7771 50.8939 32.6624C51.5406 32.416 52.2385 32.272 52.8047 32.272C54.9155 32.272 56.0307 33.4848 56.0307 35.7762V42.0404C56.0307 42.0745 56.0038 42.099 55.9697 42.099H53.3928V42.1014ZM58.161 42.1014C58.1293 42.1014 58.1025 42.0746 58.1025 42.0428V27.7746C58.1025 27.7233 58.1122 27.7087 58.183 27.7087C58.3441 27.7087 59.7838 28.614 60.2499 29.1265C60.5964 29.5072 60.7941 30.0245 60.7941 30.5467V42.0428C60.7941 42.0746 60.7672 42.1014 60.7355 42.1014H58.161V42.1014ZM24.5342 17.301C24.4854 17.301 24.439 17.3156 24.3829 17.3498C23.9485 17.6768 23.5654 18.055 23.2335 18.4796C23.1359 18.5894 23.1359 18.7163 23.2384 18.8481C23.5532 19.2556 23.9143 19.6192 24.3097 19.9291C24.3829 19.9877 24.4561 20.0145 24.5317 20.0145C24.6074 20.0145 24.6806 19.9853 24.7538 19.9267C25.1491 19.6168 25.5103 19.2532 25.8251 18.8481C25.9276 18.7163 25.9276 18.5894 25.8251 18.4723C25.5005 18.0526 25.1174 17.6743 24.6928 17.3547C24.6318 17.3156 24.5854 17.301 24.5342 17.301ZM24.5342 20.7979C24.3268 20.7979 24.1071 20.8028 23.8802 20.8125C23.7997 20.8125 23.7264 20.8418 23.6703 20.9004C23.5898 20.9809 23.5581 21.1102 23.5581 21.1956C23.5654 21.6422 23.5947 23.9995 23.6142 25.5003C23.624 26.225 23.6288 26.7497 23.6313 26.7668C23.6313 26.8741 23.7094 27.0986 23.951 27.0986H25.1198C25.2931 27.0986 25.4127 26.9766 25.4371 26.7814C25.4371 26.7765 25.4371 26.7716 25.4371 26.7668C25.4371 26.7302 25.4615 24.7267 25.5078 21.2688V21.2005C25.5103 21.1346 25.4883 20.9931 25.398 20.9028C25.3419 20.8442 25.2687 20.8174 25.1833 20.8174C24.9637 20.8052 24.744 20.7979 24.5342 20.7979ZM27.4991 21.1175C27.2307 21.1175 27.011 21.2664 26.8964 21.5226C26.5596 22.2718 26.3156 22.9551 26.0789 23.8043C26.052 23.9043 26.0618 23.9873 26.1081 24.0483C26.1399 24.0898 26.2033 24.1386 26.3302 24.1386H27.2429C27.4503 24.1386 27.5259 24.0288 27.5552 23.9385C27.7041 23.4309 27.8115 23.1356 28.0018 22.7159C28.0042 22.711 28.0189 22.6842 28.075 22.6842C28.097 22.6842 28.1189 22.6866 28.1409 22.694L28.6045 22.8477C28.6582 22.8672 28.6924 22.9136 28.7095 22.9502C28.7436 23.021 28.7485 23.1161 28.7241 23.1869C28.7192 23.2015 27.7871 25.8077 27.5089 26.6765C27.4674 26.8107 27.4723 26.9156 27.5284 26.9937C27.5796 27.0645 27.6675 27.1011 27.7895 27.1011H28.9193C29.1048 27.1011 29.2268 27.0279 29.2805 26.879C29.322 26.7668 29.3805 26.6033 29.4489 26.4105L29.4757 26.3373C29.8149 25.3905 30.3298 23.9556 30.4396 23.5481C30.6251 22.8575 30.6763 22.101 29.6636 21.7252C29.3415 21.6056 29.0365 21.5031 28.7558 21.4177C28.3996 21.3079 28.0555 21.2274 27.7529 21.1566L27.7163 21.1468C27.6333 21.1249 27.565 21.1175 27.4991 21.1175ZM21.5693 21.1175C21.5034 21.1175 21.435 21.1249 21.3692 21.142L21.3228 21.1517C21.0202 21.2225 20.6786 21.303 20.3223 21.4128C20.0441 21.4982 19.7391 21.6007 19.4145 21.7203C18.3993 22.0961 18.453 22.8526 18.6385 23.5432C18.7434 23.9361 19.2217 25.2806 19.6268 26.4056C19.6976 26.5984 19.7537 26.7619 19.7952 26.8741C19.8489 27.023 19.9709 27.0962 20.1563 27.0962H21.2862C21.4375 27.0962 21.5107 27.0376 21.5473 26.9888C21.6034 26.9132 21.6083 26.8082 21.5668 26.674C21.2911 25.8175 20.3589 23.2089 20.3491 23.1845C20.3247 23.1137 20.3296 23.021 20.3638 22.9477C20.3808 22.9111 20.4126 22.8648 20.4711 22.8453L20.9372 22.6915C20.9543 22.6866 20.9763 22.6842 20.9982 22.6842C21.0446 22.6842 21.0666 22.7037 21.0714 22.7159C21.2642 23.1454 21.374 23.4431 21.518 23.9385C21.5449 24.0312 21.6205 24.1386 21.8279 24.1386H22.743C22.8431 24.1386 22.9187 24.1093 22.9651 24.0483C23.0114 23.9873 23.0212 23.9068 22.9919 23.8067C22.7528 22.9526 22.5088 22.2694 22.1744 21.5226C22.1183 21.4006 21.9499 21.1175 21.5693 21.1175ZM28.6899 27.9649H20.3906C20.1002 27.9649 19.8537 28.209 19.8537 28.4994V29.5438C19.8537 29.8708 19.9928 30.0294 20.2832 30.0294H28.7998C29.0877 30.0294 29.2268 29.8708 29.2268 29.5438V28.4994C29.2268 28.209 28.9803 27.9649 28.6899 27.9649ZM68.6566 36.0398C68.6469 30.2124 57.6998 20.1195 46.0354 13.6894C32.5797 6.26853 17.2671 1.89558 12.223 4.67504C6.47377 7.84739 3.32339 23.6823 3.32095 36.0398C3.32339 48.4973 6.29075 64.1297 12.223 67.4021C17.5989 70.3646 32.2454 65.9916 46.0354 58.3902C57.8828 51.8576 68.6469 42.1502 68.6566 36.0398ZM16.2617 1C24.7538 1 38.3583 6.36858 47.4043 11.3565C52.5801 14.2092 58.4539 18.3723 62.9976 22.6086C67.3584 26.6716 71.4727 31.7303 71.48 36.0398C71.4727 40.0979 68.1783 44.8589 62.8756 49.7199C58.3733 53.8439 52.5265 57.8997 47.4068 60.7231C38.6682 65.5401 25.3492 71.1674 16.5691 71.1674C14.1826 71.1674 12.2255 70.755 10.7467 69.9399C6.85933 67.7974 4.36782 62.0237 2.89634 56.3672C1.31505 50.2982 0.50244 42.9994 0.5 36.0422C0.5 29.2339 1.3785 21.918 2.90854 15.9686C4.7729 8.72344 7.48404 3.94296 10.7467 2.14204C12.1157 1.38312 13.9727 1 16.2617 1Z" fill="#E75204"/>
</svg>
